<mxfile host="app.diagrams.net" modified="2023-06-30T06:18:59.814Z" agent="Mozilla/5.0 (Windows NT 10.0; Win64; x64; rv:108.0) Gecko/20100101 Firefox/108.0" etag="SGOu2cUzsr4qquHOaPop" version="21.3.5">
  <diagram name="Page-1" id="WcRpKhG78xrK30DCyWYJ">
    <mxGraphModel dx="3627" dy="3573" grid="0" gridSize="10" guides="1" tooltips="1" connect="1" arrows="1" fold="1" page="1" pageScale="1" pageWidth="3300" pageHeight="4681" math="0" shadow="0">
      <root>
        <mxCell id="0" />
        <mxCell id="1" parent="0" />
        <mxCell id="ZEo53E-9DV6HsdwpZdx1-291" value="Patient" style="align=center;aspect=fixed;fontSize=54;fontStyle=1;labelBorderColor=none;strokeWidth=4;" parent="1" vertex="1">
          <mxGeometry x="6947.5" y="2710" width="517.5" height="207" as="geometry" />
        </mxCell>
        <mxCell id="ZEo53E-9DV6HsdwpZdx1-292" value="Health_check-up&#xa;" style="align=center;aspect=fixed;fontSize=54;fontStyle=1;labelBorderColor=none;strokeWidth=4;" parent="1" vertex="1">
          <mxGeometry x="8890" y="3639" width="545" height="218" as="geometry" />
        </mxCell>
        <mxCell id="ZEo53E-9DV6HsdwpZdx1-293" value="Doctor" style="align=center;aspect=fixed;fontSize=54;fontStyle=1;labelBorderColor=none;strokeWidth=4;" parent="1" vertex="1">
          <mxGeometry x="8940" y="2640" width="500" height="200" as="geometry" />
        </mxCell>
        <mxCell id="ZEo53E-9DV6HsdwpZdx1-294" value="Report" style="align=center;aspect=fixed;fontSize=54;fontStyle=1;labelBorderColor=none;strokeWidth=5;" parent="1" vertex="1">
          <mxGeometry x="6958.75" y="4580" width="475" height="190" as="geometry" />
        </mxCell>
        <mxCell id="ZEo53E-9DV6HsdwpZdx1-295" value="Nutritionist" style="align=center;aspect=fixed;fontSize=54;fontStyle=1;labelBorderColor=none;strokeWidth=4;" parent="1" vertex="1">
          <mxGeometry x="5510" y="5457.5" width="500" height="200" as="geometry" />
        </mxCell>
        <mxCell id="ZEo53E-9DV6HsdwpZdx1-296" value="Meal Plan" style="shape=ext;margin=6;double=1;align=center;fontSize=54;spacingTop=1;fontStyle=1;labelBorderColor=none;strokeWidth=4;" parent="1" vertex="1">
          <mxGeometry x="8480" y="5440" width="590" height="250" as="geometry" />
        </mxCell>
        <mxCell id="ZEo53E-9DV6HsdwpZdx1-297" value="PID" style="ellipse;align=center;fontSize=54;strokeWidth=4;fontStyle=5;labelBorderColor=none;" parent="1" vertex="1">
          <mxGeometry x="6690" y="2280" width="335" height="190" as="geometry" />
        </mxCell>
        <mxCell id="ZEo53E-9DV6HsdwpZdx1-298" value="DOB" style="ellipse;align=center;fontSize=54;strokeWidth=4;fontStyle=1;labelBorderColor=none;" parent="1" vertex="1">
          <mxGeometry x="6440" y="2937" width="330" height="180" as="geometry" />
        </mxCell>
        <mxCell id="ZEo53E-9DV6HsdwpZdx1-299" value="Gender" style="ellipse;align=center;fontSize=54;strokeWidth=4;fontStyle=1;labelBorderColor=none;" parent="1" vertex="1">
          <mxGeometry x="7870" y="2320" width="382.5" height="180" as="geometry" />
        </mxCell>
        <mxCell id="ZEo53E-9DV6HsdwpZdx1-300" value="Pname" style="ellipse;align=center;fontSize=54;fontStyle=1;labelBorderColor=none;strokeWidth=4;" parent="1" vertex="1">
          <mxGeometry x="7125" y="2455" width="450" height="150" as="geometry" />
        </mxCell>
        <mxCell id="ZEo53E-9DV6HsdwpZdx1-301" value="Age" style="ellipse;align=center;dashed=1;fontSize=54;strokeWidth=4;fontStyle=1;labelBorderColor=none;" parent="1" vertex="1">
          <mxGeometry x="6335" y="2365" width="340" height="170" as="geometry" />
        </mxCell>
        <mxCell id="ZEo53E-9DV6HsdwpZdx1-302" value="&lt;font style=&quot;font-size: 54px;&quot;&gt;Has&lt;/font&gt;" style="shape=rhombus;double=1;perimeter=rhombusPerimeter;whiteSpace=wrap;html=1;align=center;strokeWidth=6;" parent="1" vertex="1">
          <mxGeometry x="6951.25" y="5430" width="490" height="280" as="geometry" />
        </mxCell>
        <mxCell id="ZEo53E-9DV6HsdwpZdx1-303" value="Pays" style="shape=rhombus;perimeter=rhombusPerimeter;align=center;fontSize=54;fontStyle=1;labelBorderColor=none;strokeWidth=4;" parent="1" vertex="1">
          <mxGeometry x="5660" y="2805" width="570" height="260" as="geometry" />
        </mxCell>
        <mxCell id="ZEo53E-9DV6HsdwpZdx1-304" value="Provides" style="shape=rhombus;perimeter=rhombusPerimeter;align=center;fontSize=54;fontStyle=1;labelBorderColor=none;strokeWidth=4;" parent="1" vertex="1">
          <mxGeometry x="8920" y="3040" width="540" height="210" as="geometry" />
        </mxCell>
        <mxCell id="ZEo53E-9DV6HsdwpZdx1-305" value="Has" style="shape=rhombus;perimeter=rhombusPerimeter;align=center;fontSize=54;fontStyle=1;labelBorderColor=none;strokeWidth=4;" parent="1" vertex="1">
          <mxGeometry x="6045" y="3615" width="630" height="278" as="geometry" />
        </mxCell>
        <mxCell id="ZEo53E-9DV6HsdwpZdx1-306" value="Checks" style="shape=rhombus;perimeter=rhombusPerimeter;align=center;fontSize=54;fontStyle=1;labelBorderColor=none;strokeWidth=4;" parent="1" vertex="1">
          <mxGeometry x="7735" y="3599" width="610" height="290" as="geometry" />
        </mxCell>
        <mxCell id="ZEo53E-9DV6HsdwpZdx1-307" style="rounded=0;orthogonalLoop=1;jettySize=auto;html=1;exitX=1;exitY=0.5;exitDx=0;exitDy=0;entryX=0;entryY=0.5;entryDx=0;entryDy=0;fontFamily=Helvetica;fontSize=54;fontColor=default;endArrow=none;endFill=0;strokeWidth=5;" parent="1" source="ZEo53E-9DV6HsdwpZdx1-308" target="ZEo53E-9DV6HsdwpZdx1-293" edge="1">
          <mxGeometry relative="1" as="geometry" />
        </mxCell>
        <mxCell id="ZEo53E-9DV6HsdwpZdx1-308" value="Has" style="shape=rhombus;perimeter=rhombusPerimeter;align=center;fontSize=54;fontStyle=1;labelBorderColor=none;strokeWidth=4;" parent="1" vertex="1">
          <mxGeometry x="7920" y="2810" width="570" height="250" as="geometry" />
        </mxCell>
        <mxCell id="ZEo53E-9DV6HsdwpZdx1-309" value="" style="endArrow=none;rounded=0;strokeWidth=4;fontSize=54;fontStyle=1;exitX=1;exitY=0.5;exitDx=0;exitDy=0;entryX=0;entryY=0.5;entryDx=0;entryDy=0;labelBorderColor=none;shape=link;width=15;" parent="1" source="ZEo53E-9DV6HsdwpZdx1-306" target="ZEo53E-9DV6HsdwpZdx1-292" edge="1">
          <mxGeometry width="50" height="50" relative="1" as="geometry">
            <mxPoint x="9900" y="3270" as="sourcePoint" />
            <mxPoint x="9900" y="3705" as="targetPoint" />
            <Array as="points" />
          </mxGeometry>
        </mxCell>
        <mxCell id="ZEo53E-9DV6HsdwpZdx1-310" value="" style="endArrow=none;rounded=0;exitX=0.5;exitY=0;exitDx=0;exitDy=0;strokeWidth=4;fontSize=54;fontStyle=1;labelBorderColor=none;entryX=0.5;entryY=1;entryDx=0;entryDy=0;" parent="1" source="ZEo53E-9DV6HsdwpZdx1-304" target="ZEo53E-9DV6HsdwpZdx1-293" edge="1">
          <mxGeometry width="50" height="50" relative="1" as="geometry">
            <mxPoint x="11260" y="2972" as="sourcePoint" />
            <mxPoint x="11462" y="3422" as="targetPoint" />
          </mxGeometry>
        </mxCell>
        <mxCell id="ZEo53E-9DV6HsdwpZdx1-311" value="Pay_method" style="ellipse;align=center;fontSize=54;fontStyle=1;labelBorderColor=none;strokeWidth=4;" parent="1" vertex="1">
          <mxGeometry x="4390" y="3010" width="540" height="158" as="geometry" />
        </mxCell>
        <mxCell id="ZEo53E-9DV6HsdwpZdx1-312" value="Pay_ID" style="ellipse;align=center;fontSize=54;fontStyle=1;labelBorderColor=none;strokeWidth=4;" parent="1" vertex="1">
          <mxGeometry x="5070" y="3010" width="435" height="120" as="geometry" />
        </mxCell>
        <mxCell id="ZEo53E-9DV6HsdwpZdx1-313" value="MPname" style="ellipse;align=center;fontSize=54;fontStyle=1;labelBorderColor=none;strokeWidth=4;html=1;movable=1;resizable=1;rotatable=1;deletable=1;editable=1;locked=0;connectable=1;" parent="1" vertex="1">
          <mxGeometry x="8560" y="5090" width="465" height="185" as="geometry" />
        </mxCell>
        <mxCell id="ZEo53E-9DV6HsdwpZdx1-314" value="Nname" style="ellipse;align=center;fontSize=54;fontStyle=1;labelBorderColor=none;strokeWidth=4;" parent="1" vertex="1">
          <mxGeometry x="5930" y="5158" width="480" height="170" as="geometry" />
        </mxCell>
        <mxCell id="ZEo53E-9DV6HsdwpZdx1-315" value="NID" style="ellipse;align=center;fontSize=54;fontStyle=5;labelBorderColor=none;strokeWidth=4;" parent="1" vertex="1">
          <mxGeometry x="4895" y="5328" width="475" height="200" as="geometry" />
        </mxCell>
        <mxCell id="ZEo53E-9DV6HsdwpZdx1-316" value="Report_Type" style="ellipse;align=center;fontSize=54;fontStyle=1;labelBorderColor=none;strokeWidth=5;" parent="1" vertex="1">
          <mxGeometry x="6650.5" y="4180" width="495" height="230" as="geometry" />
        </mxCell>
        <mxCell id="ZEo53E-9DV6HsdwpZdx1-317" value="Recommmendation" style="ellipse;align=center;fontSize=54;fontStyle=1;labelBorderColor=none;strokeWidth=5;" parent="1" vertex="1">
          <mxGeometry x="6875" y="4900" width="635.25" height="235" as="geometry" />
        </mxCell>
        <mxCell id="ZEo53E-9DV6HsdwpZdx1-318" value="RiD" style="ellipse;align=center;fontStyle=5;fontSize=54;labelBorderColor=none;strokeWidth=5;" parent="1" vertex="1">
          <mxGeometry x="7330" y="4165" width="430" height="260" as="geometry" />
        </mxCell>
        <mxCell id="ZEo53E-9DV6HsdwpZdx1-319" value="cholesterol_level" style="ellipse;align=center;fontSize=54;fontStyle=1;labelBorderColor=none;strokeWidth=4;" parent="1" vertex="1">
          <mxGeometry x="9585" y="3844" width="525" height="160" as="geometry" />
        </mxCell>
        <mxCell id="ZEo53E-9DV6HsdwpZdx1-320" value="Pressure_level" style="ellipse;align=center;fontSize=54;fontStyle=1;labelBorderColor=none;strokeWidth=4;" parent="1" vertex="1">
          <mxGeometry x="9590" y="3604" width="465" height="160" as="geometry" />
        </mxCell>
        <mxCell id="ZEo53E-9DV6HsdwpZdx1-321" value="blood _sugar_level" style="ellipse;align=center;fontSize=54;fontStyle=1;labelBorderColor=none;strokeWidth=4;" parent="1" vertex="1">
          <mxGeometry x="9265" y="3375" width="600" height="180" as="geometry" />
        </mxCell>
        <mxCell id="ZEo53E-9DV6HsdwpZdx1-322" value="Date" style="ellipse;align=center;fontSize=54;strokeWidth=4;fontStyle=1;labelBorderColor=none;" parent="1" vertex="1">
          <mxGeometry x="8715" y="3370" width="420" height="170" as="geometry" />
        </mxCell>
        <mxCell id="ZEo53E-9DV6HsdwpZdx1-323" value="Check-upID" style="ellipse;align=center;fontStyle=5;fontSize=54;labelBorderColor=none;strokeWidth=5;" parent="1" vertex="1">
          <mxGeometry x="9185" y="3980" width="460" height="162" as="geometry" />
        </mxCell>
        <mxCell id="ZEo53E-9DV6HsdwpZdx1-324" value="Calorie_goal" style="ellipse;align=center;fontSize=54;fontStyle=1;labelBorderColor=none;strokeWidth=4;" parent="1" vertex="1">
          <mxGeometry x="4445" y="3658" width="440" height="180" as="geometry" />
        </mxCell>
        <mxCell id="ZEo53E-9DV6HsdwpZdx1-325" value="PlanID" style="ellipse;align=center;fontStyle=5;fontSize=54;labelBorderColor=none;strokeWidth=4;" parent="1" vertex="1">
          <mxGeometry x="4780" y="3338" width="380" height="160" as="geometry" />
        </mxCell>
        <mxCell id="ZEo53E-9DV6HsdwpZdx1-326" value="speciality&#xa;" style="ellipse;align=center;fontSize=54;fontStyle=1;labelBorderColor=none;strokeWidth=4;" parent="1" vertex="1">
          <mxGeometry x="9410" y="2400" width="420" height="190" as="geometry" />
        </mxCell>
        <mxCell id="ZEo53E-9DV6HsdwpZdx1-327" value="Dname" style="ellipse;align=center;fontSize=54;fontStyle=1;labelBorderColor=none;strokeWidth=4;" parent="1" vertex="1">
          <mxGeometry x="8970" y="2310" width="380" height="170" as="geometry" />
        </mxCell>
        <mxCell id="ZEo53E-9DV6HsdwpZdx1-328" value="" style="endArrow=none;rounded=0;entryX=0.5;entryY=1;entryDx=0;entryDy=0;fontSize=54;fontStyle=1;labelBorderColor=none;strokeWidth=4;exitX=1;exitY=0;exitDx=0;exitDy=0;" parent="1" source="ZEo53E-9DV6HsdwpZdx1-292" target="ZEo53E-9DV6HsdwpZdx1-321" edge="1">
          <mxGeometry width="50" height="50" relative="1" as="geometry">
            <mxPoint x="9430" y="3728" as="sourcePoint" />
            <mxPoint x="10004.289321881346" y="3600.4264068711936" as="targetPoint" />
          </mxGeometry>
        </mxCell>
        <mxCell id="ZEo53E-9DV6HsdwpZdx1-329" value="" style="endArrow=none;rounded=0;entryX=0;entryY=0;entryDx=0;entryDy=0;fontSize=54;fontStyle=1;labelBorderColor=none;strokeWidth=4;exitX=1;exitY=1;exitDx=0;exitDy=0;" parent="1" source="ZEo53E-9DV6HsdwpZdx1-292" target="ZEo53E-9DV6HsdwpZdx1-319" edge="1">
          <mxGeometry width="50" height="50" relative="1" as="geometry">
            <mxPoint x="9420" y="3798" as="sourcePoint" />
            <mxPoint x="9885" y="3918" as="targetPoint" />
          </mxGeometry>
        </mxCell>
        <mxCell id="ZEo53E-9DV6HsdwpZdx1-330" value="" style="endArrow=none;rounded=0;entryX=0;entryY=0.5;entryDx=0;entryDy=0;fontSize=54;fontStyle=1;labelBorderColor=none;strokeWidth=4;exitX=1;exitY=0.5;exitDx=0;exitDy=0;" parent="1" source="ZEo53E-9DV6HsdwpZdx1-292" target="ZEo53E-9DV6HsdwpZdx1-320" edge="1">
          <mxGeometry width="50" height="50" relative="1" as="geometry">
            <mxPoint x="9420" y="3778" as="sourcePoint" />
            <mxPoint x="9850" y="3733" as="targetPoint" />
          </mxGeometry>
        </mxCell>
        <mxCell id="ZEo53E-9DV6HsdwpZdx1-331" value="" style="endArrow=none;rounded=0;strokeWidth=4;entryX=0.603;entryY=1;entryDx=0;entryDy=0;fontSize=54;fontStyle=1;labelBorderColor=none;exitX=0.25;exitY=0;exitDx=0;exitDy=0;entryPerimeter=0;" parent="1" source="ZEo53E-9DV6HsdwpZdx1-292" target="ZEo53E-9DV6HsdwpZdx1-322" edge="1">
          <mxGeometry width="50" height="50" relative="1" as="geometry">
            <mxPoint x="8910" y="3728" as="sourcePoint" />
            <mxPoint x="8800" y="3538" as="targetPoint" />
          </mxGeometry>
        </mxCell>
        <mxCell id="ZEo53E-9DV6HsdwpZdx1-332" value="" style="endArrow=none;rounded=0;entryX=0.75;entryY=1;entryDx=0;entryDy=0;fontSize=54;fontStyle=1;labelBorderColor=none;strokeWidth=4;exitX=0.5;exitY=0;exitDx=0;exitDy=0;" parent="1" source="ZEo53E-9DV6HsdwpZdx1-323" target="ZEo53E-9DV6HsdwpZdx1-292" edge="1">
          <mxGeometry width="50" height="50" relative="1" as="geometry">
            <mxPoint x="8953.108079695232" y="4036.843596527331" as="sourcePoint" />
            <mxPoint x="8930" y="3958" as="targetPoint" />
          </mxGeometry>
        </mxCell>
        <mxCell id="ZEo53E-9DV6HsdwpZdx1-333" value="DID" style="ellipse;align=center;fontStyle=5;fontSize=54;labelBorderColor=none;strokeWidth=4;" parent="1" vertex="1">
          <mxGeometry x="8565" y="2415" width="340" height="170" as="geometry" />
        </mxCell>
        <mxCell id="ZEo53E-9DV6HsdwpZdx1-334" style="edgeStyle=orthogonalEdgeStyle;rounded=0;orthogonalLoop=1;jettySize=auto;html=1;exitX=0.5;exitY=1;exitDx=0;exitDy=0;labelBorderColor=none;strokeWidth=4;fontSize=54;" parent="1" source="ZEo53E-9DV6HsdwpZdx1-301" target="ZEo53E-9DV6HsdwpZdx1-301" edge="1">
          <mxGeometry relative="1" as="geometry" />
        </mxCell>
        <mxCell id="ZEo53E-9DV6HsdwpZdx1-335" style="rounded=0;orthogonalLoop=1;jettySize=auto;html=1;entryX=0;entryY=0.25;entryDx=0;entryDy=0;fontFamily=Helvetica;fontSize=54;fontColor=default;strokeWidth=5;endArrow=none;endFill=0;" parent="1" source="ZEo53E-9DV6HsdwpZdx1-336" target="ZEo53E-9DV6HsdwpZdx1-291" edge="1">
          <mxGeometry relative="1" as="geometry" />
        </mxCell>
        <mxCell id="ZEo53E-9DV6HsdwpZdx1-336" value="&lt;font style=&quot;font-size: 54px;&quot;&gt;&lt;b style=&quot;font-size: 54px;&quot;&gt;phone_no&lt;/b&gt;&lt;/font&gt;" style="ellipse;shape=doubleEllipse;margin=10;whiteSpace=wrap;html=1;align=center;labelBorderColor=none;strokeColor=default;strokeWidth=4;fontFamily=Helvetica;fontSize=54;fontColor=default;fillColor=default;" parent="1" vertex="1">
          <mxGeometry x="6225" y="2565" width="355" height="200" as="geometry" />
        </mxCell>
        <mxCell id="ZEo53E-9DV6HsdwpZdx1-337" value="&lt;font style=&quot;font-size: 54px;&quot;&gt;&lt;b style=&quot;font-size: 54px;&quot;&gt;Fname&lt;/b&gt;&lt;/font&gt;" style="ellipse;whiteSpace=wrap;html=1;fontSize=54;strokeWidth=4;" parent="1" vertex="1">
          <mxGeometry x="7080" y="2220" width="330" height="175" as="geometry" />
        </mxCell>
        <mxCell id="ZEo53E-9DV6HsdwpZdx1-338" value="&lt;font style=&quot;font-size: 54px;&quot;&gt;&lt;b style=&quot;font-size: 54px;&quot;&gt;Lname&lt;/b&gt;&lt;/font&gt;" style="ellipse;whiteSpace=wrap;html=1;labelBorderColor=none;strokeWidth=4;fontSize=54;" parent="1" vertex="1">
          <mxGeometry x="7465" y="2250" width="365" height="175" as="geometry" />
        </mxCell>
        <mxCell id="ZEo53E-9DV6HsdwpZdx1-339" value="" style="endArrow=none;rounded=0;fontSize=54;fontStyle=1;labelBorderColor=none;strokeWidth=4;" parent="1" source="ZEo53E-9DV6HsdwpZdx1-300" target="ZEo53E-9DV6HsdwpZdx1-338" edge="1">
          <mxGeometry width="50" height="50" relative="1" as="geometry">
            <mxPoint x="8290" y="2290" as="sourcePoint" />
            <mxPoint x="8409.289321881346" y="2122.4264068711936" as="targetPoint" />
          </mxGeometry>
        </mxCell>
        <mxCell id="ZEo53E-9DV6HsdwpZdx1-340" value="" style="endArrow=none;rounded=0;entryX=0.5;entryY=1;entryDx=0;entryDy=0;exitX=0.5;exitY=0;exitDx=0;exitDy=0;fontSize=54;fontStyle=1;labelBorderColor=none;strokeWidth=4;" parent="1" source="ZEo53E-9DV6HsdwpZdx1-300" target="ZEo53E-9DV6HsdwpZdx1-337" edge="1">
          <mxGeometry width="50" height="50" relative="1" as="geometry">
            <mxPoint x="8420" y="2210" as="sourcePoint" />
            <mxPoint x="8539.289321881346" y="2042.4264068711936" as="targetPoint" />
          </mxGeometry>
        </mxCell>
        <mxCell id="ZEo53E-9DV6HsdwpZdx1-341" value="" style="endArrow=none;rounded=0;entryX=1;entryY=1;entryDx=0;entryDy=0;fontSize=54;fontStyle=1;labelBorderColor=none;strokeWidth=4;exitX=0.25;exitY=0;exitDx=0;exitDy=0;" parent="1" source="ZEo53E-9DV6HsdwpZdx1-291" target="ZEo53E-9DV6HsdwpZdx1-297" edge="1">
          <mxGeometry width="50" height="50" relative="1" as="geometry">
            <mxPoint x="7145" y="2750" as="sourcePoint" />
            <mxPoint x="7164.289321881346" y="2342.4264068711936" as="targetPoint" />
          </mxGeometry>
        </mxCell>
        <mxCell id="ZEo53E-9DV6HsdwpZdx1-342" value="" style="endArrow=none;rounded=0;entryX=1;entryY=1;entryDx=0;entryDy=0;fontSize=54;fontStyle=1;labelBorderColor=none;strokeWidth=4;exitX=0;exitY=0;exitDx=0;exitDy=0;" parent="1" source="ZEo53E-9DV6HsdwpZdx1-291" target="ZEo53E-9DV6HsdwpZdx1-301" edge="1">
          <mxGeometry width="50" height="50" relative="1" as="geometry">
            <mxPoint x="6975" y="2740" as="sourcePoint" />
            <mxPoint x="8000" y="1903" as="targetPoint" />
          </mxGeometry>
        </mxCell>
        <mxCell id="ZEo53E-9DV6HsdwpZdx1-343" value="" style="endArrow=none;rounded=0;fontSize=54;fontStyle=1;exitX=0;exitY=0.75;exitDx=0;exitDy=0;labelBorderColor=none;strokeWidth=4;entryX=1;entryY=0;entryDx=0;entryDy=0;" parent="1" source="ZEo53E-9DV6HsdwpZdx1-291" target="ZEo53E-9DV6HsdwpZdx1-298" edge="1">
          <mxGeometry width="50" height="50" relative="1" as="geometry">
            <mxPoint x="6755" y="3020" as="sourcePoint" />
            <mxPoint x="6645" y="3010" as="targetPoint" />
          </mxGeometry>
        </mxCell>
        <mxCell id="ZEo53E-9DV6HsdwpZdx1-344" value="" style="endArrow=none;rounded=0;fontSize=54;fontStyle=1;labelBorderColor=none;strokeWidth=4;exitX=0.5;exitY=0;exitDx=0;exitDy=0;entryX=0.378;entryY=1.033;entryDx=0;entryDy=0;entryPerimeter=0;" parent="1" source="ZEo53E-9DV6HsdwpZdx1-291" target="ZEo53E-9DV6HsdwpZdx1-300" edge="1">
          <mxGeometry width="50" height="50" relative="1" as="geometry">
            <mxPoint x="7195" y="2740" as="sourcePoint" />
            <mxPoint x="7230" y="2290" as="targetPoint" />
          </mxGeometry>
        </mxCell>
        <mxCell id="ZEo53E-9DV6HsdwpZdx1-345" value="" style="endArrow=none;rounded=0;entryX=0.059;entryY=0.778;entryDx=0;entryDy=0;fontSize=54;fontStyle=1;labelBorderColor=none;strokeWidth=4;exitX=0.952;exitY=-0.006;exitDx=0;exitDy=0;exitPerimeter=0;entryPerimeter=0;" parent="1" source="ZEo53E-9DV6HsdwpZdx1-291" target="ZEo53E-9DV6HsdwpZdx1-299" edge="1">
          <mxGeometry width="50" height="50" relative="1" as="geometry">
            <mxPoint x="7425" y="2740" as="sourcePoint" />
            <mxPoint x="7661.459943306583" y="2633.8479215916186" as="targetPoint" />
          </mxGeometry>
        </mxCell>
        <mxCell id="ZEo53E-9DV6HsdwpZdx1-346" value="" style="endArrow=none;rounded=0;fontSize=54;fontStyle=1;exitX=0.25;exitY=0;exitDx=0;exitDy=0;labelBorderColor=none;strokeWidth=4;entryX=0.912;entryY=0.765;entryDx=0;entryDy=0;entryPerimeter=0;" parent="1" source="ZEo53E-9DV6HsdwpZdx1-293" target="ZEo53E-9DV6HsdwpZdx1-333" edge="1">
          <mxGeometry width="50" height="50" relative="1" as="geometry">
            <mxPoint x="8060" y="2080" as="sourcePoint" />
            <mxPoint x="8540" y="2390" as="targetPoint" />
          </mxGeometry>
        </mxCell>
        <mxCell id="ZEo53E-9DV6HsdwpZdx1-347" value="" style="endArrow=none;rounded=0;fontSize=54;fontStyle=1;entryX=0.5;entryY=1;entryDx=0;entryDy=0;labelBorderColor=none;strokeWidth=4;exitX=0.56;exitY=0;exitDx=0;exitDy=0;exitPerimeter=0;" parent="1" source="ZEo53E-9DV6HsdwpZdx1-293" target="ZEo53E-9DV6HsdwpZdx1-327" edge="1">
          <mxGeometry width="50" height="50" relative="1" as="geometry">
            <mxPoint x="8950" y="2650" as="sourcePoint" />
            <mxPoint x="8595" y="2142" as="targetPoint" />
          </mxGeometry>
        </mxCell>
        <mxCell id="ZEo53E-9DV6HsdwpZdx1-348" value="" style="endArrow=none;rounded=0;fontSize=54;fontStyle=1;exitX=0.357;exitY=1;exitDx=0;exitDy=0;exitPerimeter=0;labelBorderColor=none;strokeWidth=4;entryX=0.75;entryY=0;entryDx=0;entryDy=0;" parent="1" source="ZEo53E-9DV6HsdwpZdx1-326" target="ZEo53E-9DV6HsdwpZdx1-293" edge="1">
          <mxGeometry width="50" height="50" relative="1" as="geometry">
            <mxPoint x="9150" y="2510" as="sourcePoint" />
            <mxPoint x="9110" y="2640" as="targetPoint" />
          </mxGeometry>
        </mxCell>
        <mxCell id="ZEo53E-9DV6HsdwpZdx1-349" style="edgeStyle=orthogonalEdgeStyle;rounded=0;orthogonalLoop=1;jettySize=auto;html=1;exitX=0.5;exitY=1;exitDx=0;exitDy=0;labelBorderColor=none;fontSize=54;strokeWidth=5;" parent="1" source="ZEo53E-9DV6HsdwpZdx1-319" target="ZEo53E-9DV6HsdwpZdx1-319" edge="1">
          <mxGeometry relative="1" as="geometry" />
        </mxCell>
        <mxCell id="ZEo53E-9DV6HsdwpZdx1-350" style="edgeStyle=orthogonalEdgeStyle;rounded=0;orthogonalLoop=1;jettySize=auto;html=1;exitX=0.5;exitY=1;exitDx=0;exitDy=0;labelBorderColor=none;fontSize=54;strokeWidth=5;" parent="1" source="ZEo53E-9DV6HsdwpZdx1-319" target="ZEo53E-9DV6HsdwpZdx1-319" edge="1">
          <mxGeometry relative="1" as="geometry" />
        </mxCell>
        <mxCell id="ZEo53E-9DV6HsdwpZdx1-351" value="" style="endArrow=none;rounded=0;fontSize=54;fontStyle=1;exitX=0;exitY=0.5;exitDx=0;exitDy=0;labelBorderColor=none;strokeWidth=4;entryX=0.75;entryY=1;entryDx=0;entryDy=0;" parent="1" source="ZEo53E-9DV6HsdwpZdx1-306" target="ZEo53E-9DV6HsdwpZdx1-291" edge="1">
          <mxGeometry width="50" height="50" relative="1" as="geometry">
            <mxPoint x="7740" y="3120" as="sourcePoint" />
            <mxPoint x="7340" y="2850" as="targetPoint" />
          </mxGeometry>
        </mxCell>
        <mxCell id="ZEo53E-9DV6HsdwpZdx1-352" value="" style="endArrow=none;rounded=0;fontSize=54;fontStyle=1;entryX=0.5;entryY=1;entryDx=0;entryDy=0;labelBorderColor=none;strokeWidth=4;exitX=0.578;exitY=-0.018;exitDx=0;exitDy=0;exitPerimeter=0;" parent="1" source="ZEo53E-9DV6HsdwpZdx1-292" target="ZEo53E-9DV6HsdwpZdx1-304" edge="1">
          <mxGeometry width="50" height="50" relative="1" as="geometry">
            <mxPoint x="11190" y="3180" as="sourcePoint" />
            <mxPoint x="10455" y="2174" as="targetPoint" />
          </mxGeometry>
        </mxCell>
        <mxCell id="ZEo53E-9DV6HsdwpZdx1-353" value="" style="endArrow=none;rounded=0;fontSize=54;fontStyle=1;entryX=0;entryY=0.5;entryDx=0;entryDy=0;labelBorderColor=none;strokeWidth=4;exitX=1;exitY=0.5;exitDx=0;exitDy=0;" parent="1" source="ZEo53E-9DV6HsdwpZdx1-291" target="ZEo53E-9DV6HsdwpZdx1-308" edge="1">
          <mxGeometry width="50" height="50" relative="1" as="geometry">
            <mxPoint x="7740" y="2915" as="sourcePoint" />
            <mxPoint x="7950" y="2955" as="targetPoint" />
          </mxGeometry>
        </mxCell>
        <mxCell id="ZEo53E-9DV6HsdwpZdx1-354" value="" style="endArrow=none;rounded=0;fontSize=54;fontStyle=1;entryX=1;entryY=0.5;entryDx=0;entryDy=0;labelBorderColor=none;strokeWidth=4;exitX=0;exitY=0.5;exitDx=0;exitDy=0;" parent="1" source="ZEo53E-9DV6HsdwpZdx1-291" target="ZEo53E-9DV6HsdwpZdx1-303" edge="1">
          <mxGeometry width="50" height="50" relative="1" as="geometry">
            <mxPoint x="6940" y="3000" as="sourcePoint" />
            <mxPoint x="7170" y="3600" as="targetPoint" />
            <Array as="points" />
          </mxGeometry>
        </mxCell>
        <mxCell id="ZEo53E-9DV6HsdwpZdx1-355" value="" style="endArrow=none;rounded=0;fontSize=54;fontStyle=1;exitX=1;exitY=0.5;exitDx=0;exitDy=0;labelBorderColor=none;strokeWidth=4;entryX=0.25;entryY=1;entryDx=0;entryDy=0;" parent="1" source="ZEo53E-9DV6HsdwpZdx1-305" target="ZEo53E-9DV6HsdwpZdx1-291" edge="1">
          <mxGeometry width="50" height="50" relative="1" as="geometry">
            <mxPoint x="7500" y="3650" as="sourcePoint" />
            <mxPoint x="7150" y="2820" as="targetPoint" />
          </mxGeometry>
        </mxCell>
        <mxCell id="ZEo53E-9DV6HsdwpZdx1-357" value="Diet_Plan" style="align=center;aspect=fixed;fontSize=54;fontStyle=1;labelBorderColor=none;strokeWidth=4;" parent="1" vertex="1">
          <mxGeometry x="5075" y="3640" width="510" height="204" as="geometry" />
        </mxCell>
        <mxCell id="ZEo53E-9DV6HsdwpZdx1-358" value="Has" style="shape=rhombus;perimeter=rhombusPerimeter;align=center;fontSize=54;fontStyle=1;labelBorderColor=none;strokeWidth=5;" parent="1" vertex="1">
          <mxGeometry x="7930" y="4063" width="640" height="270" as="geometry" />
        </mxCell>
        <mxCell id="ZEo53E-9DV6HsdwpZdx1-359" value="Has" style="shape=rhombus;perimeter=rhombusPerimeter;align=center;fontSize=54;fontStyle=1;labelBorderColor=none;strokeWidth=4;" parent="1" vertex="1">
          <mxGeometry x="6886.25" y="3760" width="640" height="320" as="geometry" />
        </mxCell>
        <mxCell id="ZEo53E-9DV6HsdwpZdx1-360" value="" style="endArrow=none;rounded=0;entryX=0;entryY=1;entryDx=0;entryDy=0;fontSize=54;fontStyle=1;exitX=0.718;exitY=0;exitDx=0;exitDy=0;labelBorderColor=none;strokeWidth=5;exitPerimeter=0;" parent="1" source="ZEo53E-9DV6HsdwpZdx1-294" target="ZEo53E-9DV6HsdwpZdx1-318" edge="1">
          <mxGeometry width="50" height="50" relative="1" as="geometry">
            <mxPoint x="8386.25" y="4375" as="sourcePoint" />
            <mxPoint x="8159.25" y="4290" as="targetPoint" />
          </mxGeometry>
        </mxCell>
        <mxCell id="ZEo53E-9DV6HsdwpZdx1-361" value="" style="endArrow=none;rounded=0;fontSize=54;fontStyle=1;exitX=0.25;exitY=0;exitDx=0;exitDy=0;labelBorderColor=none;strokeWidth=5;" parent="1" source="ZEo53E-9DV6HsdwpZdx1-294" target="ZEo53E-9DV6HsdwpZdx1-316" edge="1">
          <mxGeometry width="50" height="50" relative="1" as="geometry">
            <mxPoint x="6726.25" y="4365" as="sourcePoint" />
            <mxPoint x="7685" y="3887" as="targetPoint" />
          </mxGeometry>
        </mxCell>
        <mxCell id="ZEo53E-9DV6HsdwpZdx1-362" style="edgeStyle=orthogonalEdgeStyle;rounded=0;orthogonalLoop=1;jettySize=auto;html=1;exitX=0.5;exitY=1;exitDx=0;exitDy=0;labelBorderColor=none;fontSize=54;strokeWidth=4;" parent="1" source="ZEo53E-9DV6HsdwpZdx1-313" target="ZEo53E-9DV6HsdwpZdx1-313" edge="1">
          <mxGeometry relative="1" as="geometry" />
        </mxCell>
        <mxCell id="ZEo53E-9DV6HsdwpZdx1-363" value="" style="endArrow=none;rounded=0;entryX=0;entryY=0.5;entryDx=0;entryDy=0;fontSize=54;fontStyle=1;labelBorderColor=none;strokeWidth=5;exitX=1;exitY=0.5;exitDx=0;exitDy=0;" parent="1" source="ZEo53E-9DV6HsdwpZdx1-294" target="yk2BD9m53uzKmdHa4zGL-2" edge="1">
          <mxGeometry width="50" height="50" relative="1" as="geometry">
            <mxPoint x="7500" y="4610" as="sourcePoint" />
            <mxPoint x="10650" y="4092" as="targetPoint" />
          </mxGeometry>
        </mxCell>
        <mxCell id="ZEo53E-9DV6HsdwpZdx1-364" value="" style="endArrow=none;rounded=0;strokeWidth=4;fontSize=54;fontStyle=1;labelBorderColor=none;shape=link;width=15;exitX=0;exitY=0.5;exitDx=0;exitDy=0;entryX=1;entryY=0.5;entryDx=0;entryDy=0;" parent="1" source="ZEo53E-9DV6HsdwpZdx1-296" target="ZEo53E-9DV6HsdwpZdx1-302" edge="1">
          <mxGeometry width="50" height="50" relative="1" as="geometry">
            <mxPoint x="7750" y="5580" as="sourcePoint" />
            <mxPoint x="7260" y="5580" as="targetPoint" />
          </mxGeometry>
        </mxCell>
        <mxCell id="ZEo53E-9DV6HsdwpZdx1-365" value="" style="endArrow=none;rounded=0;entryX=1;entryY=0.5;entryDx=0;entryDy=0;fontSize=54;fontStyle=1;exitX=0;exitY=0.5;exitDx=0;exitDy=0;labelBorderColor=none;strokeWidth=4;" parent="1" source="ZEo53E-9DV6HsdwpZdx1-302" target="ZEo53E-9DV6HsdwpZdx1-295" edge="1">
          <mxGeometry width="50" height="50" relative="1" as="geometry">
            <mxPoint x="5480" y="5189" as="sourcePoint" />
            <mxPoint x="5090" y="5189" as="targetPoint" />
          </mxGeometry>
        </mxCell>
        <mxCell id="ZEo53E-9DV6HsdwpZdx1-366" value="&lt;b&gt;&lt;font style=&quot;font-size: 54px;&quot;&gt;Experience&lt;/font&gt;&lt;/b&gt;" style="ellipse;whiteSpace=wrap;html=1;align=center;labelBorderColor=none;fontSize=54;strokeWidth=4;" parent="1" vertex="1">
          <mxGeometry x="5015" y="5665" width="412.5" height="185" as="geometry" />
        </mxCell>
        <mxCell id="ZEo53E-9DV6HsdwpZdx1-367" value="" style="endArrow=none;rounded=0;entryX=1;entryY=0.5;entryDx=0;entryDy=0;fontSize=54;fontStyle=1;labelBorderColor=none;strokeWidth=4;exitX=0;exitY=0.5;exitDx=0;exitDy=0;" parent="1" source="ZEo53E-9DV6HsdwpZdx1-357" target="ZEo53E-9DV6HsdwpZdx1-324" edge="1">
          <mxGeometry width="50" height="50" relative="1" as="geometry">
            <mxPoint x="4855" y="3583" as="sourcePoint" />
            <mxPoint x="4700" y="3892" as="targetPoint" />
          </mxGeometry>
        </mxCell>
        <mxCell id="ZEo53E-9DV6HsdwpZdx1-368" value="" style="endArrow=none;rounded=0;exitX=0.5;exitY=0;exitDx=0;exitDy=0;entryX=0.408;entryY=1.063;entryDx=0;entryDy=0;fontSize=54;fontStyle=1;entryPerimeter=0;labelBorderColor=none;strokeWidth=4;" parent="1" source="ZEo53E-9DV6HsdwpZdx1-357" target="ZEo53E-9DV6HsdwpZdx1-325" edge="1">
          <mxGeometry width="50" height="50" relative="1" as="geometry">
            <mxPoint x="5425" y="3118" as="sourcePoint" />
            <mxPoint x="5270" y="2946" as="targetPoint" />
          </mxGeometry>
        </mxCell>
        <mxCell id="ZEo53E-9DV6HsdwpZdx1-369" value="" style="endArrow=none;rounded=0;exitX=0.5;exitY=1;exitDx=0;exitDy=0;entryX=0.5;entryY=0;entryDx=0;entryDy=0;fontSize=54;fontStyle=1;labelBorderColor=none;strokeWidth=4;" parent="1" source="ZEo53E-9DV6HsdwpZdx1-313" target="ZEo53E-9DV6HsdwpZdx1-296" edge="1">
          <mxGeometry width="50" height="50" relative="1" as="geometry">
            <mxPoint x="8600" y="5130" as="sourcePoint" />
            <mxPoint x="8445" y="4958" as="targetPoint" />
          </mxGeometry>
        </mxCell>
        <mxCell id="ZEo53E-9DV6HsdwpZdx1-370" value="" style="endArrow=none;rounded=0;strokeWidth=4;fontSize=54;fontStyle=1;entryX=0.5;entryY=0;entryDx=0;entryDy=0;labelBorderColor=none;exitX=0.5;exitY=1;exitDx=0;exitDy=0;" parent="1" source="ZEo53E-9DV6HsdwpZdx1-291" target="ZEo53E-9DV6HsdwpZdx1-359" edge="1">
          <mxGeometry width="50" height="50" relative="1" as="geometry">
            <mxPoint x="7250" y="2830" as="sourcePoint" />
            <mxPoint x="7590" y="4130" as="targetPoint" />
          </mxGeometry>
        </mxCell>
        <mxCell id="ZEo53E-9DV6HsdwpZdx1-372" value="" style="endArrow=none;rounded=0;fontSize=54;fontStyle=1;labelBorderColor=none;strokeWidth=4;entryX=0;entryY=0.25;entryDx=0;entryDy=0;exitX=1;exitY=0.5;exitDx=0;exitDy=0;" parent="1" source="ZEo53E-9DV6HsdwpZdx1-315" target="ZEo53E-9DV6HsdwpZdx1-295" edge="1">
          <mxGeometry width="50" height="50" relative="1" as="geometry">
            <mxPoint x="5270" y="5508" as="sourcePoint" />
            <mxPoint x="5590" y="5492.5" as="targetPoint" />
          </mxGeometry>
        </mxCell>
        <mxCell id="ZEo53E-9DV6HsdwpZdx1-373" value="" style="endArrow=none;rounded=0;exitX=0.417;exitY=1;exitDx=0;exitDy=0;fontSize=54;fontStyle=1;exitPerimeter=0;labelBorderColor=none;strokeWidth=4;" parent="1" source="ZEo53E-9DV6HsdwpZdx1-314" target="ZEo53E-9DV6HsdwpZdx1-295" edge="1">
          <mxGeometry width="50" height="50" relative="1" as="geometry">
            <mxPoint x="5920" y="5332.5" as="sourcePoint" />
            <mxPoint x="5715" y="5567.5" as="targetPoint" />
          </mxGeometry>
        </mxCell>
        <mxCell id="ZEo53E-9DV6HsdwpZdx1-374" value="" style="endArrow=none;rounded=0;fontSize=54;fontStyle=1;labelBorderColor=none;strokeWidth=4;exitX=0;exitY=1;exitDx=0;exitDy=0;" parent="1" source="ZEo53E-9DV6HsdwpZdx1-295" target="ZEo53E-9DV6HsdwpZdx1-366" edge="1">
          <mxGeometry width="50" height="50" relative="1" as="geometry">
            <mxPoint x="5510" y="5652.5" as="sourcePoint" />
            <mxPoint x="5342.500000000042" y="5775" as="targetPoint" />
          </mxGeometry>
        </mxCell>
        <mxCell id="ZEo53E-9DV6HsdwpZdx1-375" style="edgeStyle=orthogonalEdgeStyle;rounded=0;orthogonalLoop=1;jettySize=auto;html=1;exitX=0.5;exitY=1;exitDx=0;exitDy=0;labelBorderColor=none;fontSize=54;strokeWidth=5;" parent="1" source="ZEo53E-9DV6HsdwpZdx1-319" target="ZEo53E-9DV6HsdwpZdx1-319" edge="1">
          <mxGeometry relative="1" as="geometry" />
        </mxCell>
        <mxCell id="ZEo53E-9DV6HsdwpZdx1-376" value="" style="endArrow=none;dashed=1;html=1;rounded=0;strokeWidth=8;targetPerimeterSpacing=0;movable=1;resizable=1;rotatable=1;deletable=1;editable=1;locked=0;connectable=1;" parent="1" edge="1">
          <mxGeometry width="50" height="50" relative="1" as="geometry">
            <mxPoint x="8675" y="5220" as="sourcePoint" />
            <mxPoint x="8935" y="5220" as="targetPoint" />
          </mxGeometry>
        </mxCell>
        <mxCell id="ZEo53E-9DV6HsdwpZdx1-378" value="Pay_method" style="ellipse;align=center;fontSize=54;fontStyle=1;labelBorderColor=none;strokeWidth=4;" parent="1" vertex="1">
          <mxGeometry x="4390" y="3010" width="540" height="158" as="geometry" />
        </mxCell>
        <mxCell id="ZEo53E-9DV6HsdwpZdx1-379" value="PayID" style="ellipse;align=center;fontSize=54;fontStyle=5;labelBorderColor=none;strokeWidth=4;" parent="1" vertex="1">
          <mxGeometry x="5070" y="3010" width="435" height="120" as="geometry" />
        </mxCell>
        <mxCell id="ZEo53E-9DV6HsdwpZdx1-381" value="" style="endArrow=none;rounded=0;exitX=0.5;exitY=0;exitDx=0;exitDy=0;entryX=0.5;entryY=1;entryDx=0;entryDy=0;fontSize=54;fontStyle=1;labelBorderColor=none;strokeWidth=4;" parent="1" source="ZEo53E-9DV6HsdwpZdx1-378" target="ZEo53E-9DV6HsdwpZdx1-386" edge="1">
          <mxGeometry width="50" height="50" relative="1" as="geometry">
            <mxPoint x="4740" y="2970" as="sourcePoint" />
            <mxPoint x="4860" y="2630" as="targetPoint" />
          </mxGeometry>
        </mxCell>
        <mxCell id="ZEo53E-9DV6HsdwpZdx1-382" value="" style="endArrow=none;rounded=0;entryX=1;entryY=1;entryDx=0;entryDy=0;fontSize=54;fontStyle=1;labelBorderColor=none;strokeWidth=4;" parent="1" target="ZEo53E-9DV6HsdwpZdx1-386" edge="1">
          <mxGeometry width="50" height="50" relative="1" as="geometry">
            <mxPoint x="5288" y="3000" as="sourcePoint" />
            <mxPoint x="4960" y="2830" as="targetPoint" />
          </mxGeometry>
        </mxCell>
        <mxCell id="ZEo53E-9DV6HsdwpZdx1-383" style="rounded=0;orthogonalLoop=1;jettySize=auto;html=1;exitX=0.5;exitY=1;exitDx=0;exitDy=0;entryX=0.5;entryY=0;entryDx=0;entryDy=0;strokeWidth=4;endArrow=none;endFill=0;" parent="1" source="ZEo53E-9DV6HsdwpZdx1-384" target="ZEo53E-9DV6HsdwpZdx1-386" edge="1">
          <mxGeometry relative="1" as="geometry" />
        </mxCell>
        <mxCell id="ZEo53E-9DV6HsdwpZdx1-384" value="Amount" style="ellipse;align=center;fontSize=54;fontStyle=1;labelBorderColor=none;strokeWidth=4;" parent="1" vertex="1">
          <mxGeometry x="4320" y="2375" width="510" height="160" as="geometry" />
        </mxCell>
        <mxCell id="ZEo53E-9DV6HsdwpZdx1-385" value="" style="endArrow=none;rounded=0;exitX=0.5;exitY=0;exitDx=0;exitDy=0;entryX=0.5;entryY=1;entryDx=0;entryDy=0;fontSize=54;fontStyle=1;labelBorderColor=none;strokeWidth=4;" parent="1" source="ZEo53E-9DV6HsdwpZdx1-311" target="ZEo53E-9DV6HsdwpZdx1-386" edge="1">
          <mxGeometry width="50" height="50" relative="1" as="geometry">
            <mxPoint x="4660" y="3010" as="sourcePoint" />
            <mxPoint x="4885" y="2854" as="targetPoint" />
          </mxGeometry>
        </mxCell>
        <mxCell id="ZEo53E-9DV6HsdwpZdx1-386" value="Payment" style="align=center;aspect=fixed;fontSize=54;fontStyle=1;labelBorderColor=none;strokeWidth=4;" parent="1" vertex="1">
          <mxGeometry x="4640" y="2628" width="510" height="204" as="geometry" />
        </mxCell>
        <mxCell id="ZEo53E-9DV6HsdwpZdx1-387" style="edgeStyle=orthogonalEdgeStyle;rounded=0;orthogonalLoop=1;jettySize=auto;html=1;exitX=0.5;exitY=1;exitDx=0;exitDy=0;fontFamily=Helvetica;fontSize=54;fontColor=default;" parent="1" source="ZEo53E-9DV6HsdwpZdx1-323" target="ZEo53E-9DV6HsdwpZdx1-323" edge="1">
          <mxGeometry relative="1" as="geometry" />
        </mxCell>
        <mxCell id="ZEo53E-9DV6HsdwpZdx1-388" value="Has" style="shape=rhombus;perimeter=rhombusPerimeter;align=center;fontSize=54;fontStyle=1;labelBorderColor=none;strokeWidth=5;" parent="1" vertex="1">
          <mxGeometry x="5937" y="4063" width="640" height="270" as="geometry" />
        </mxCell>
        <mxCell id="ZEo53E-9DV6HsdwpZdx1-390" value="" style="endArrow=none;rounded=0;strokeWidth=5;fontSize=54;fontStyle=1;entryX=0;entryY=0.5;entryDx=0;entryDy=0;labelBorderColor=none;exitX=1;exitY=0.5;exitDx=0;exitDy=0;endFill=0;jumpStyle=none;" parent="1" source="yk2BD9m53uzKmdHa4zGL-1" target="ZEo53E-9DV6HsdwpZdx1-294" edge="1">
          <mxGeometry width="50" height="50" relative="1" as="geometry">
            <mxPoint x="6470" y="4770" as="sourcePoint" />
            <mxPoint x="6080" y="5405" as="targetPoint" />
            <Array as="points" />
          </mxGeometry>
        </mxCell>
        <mxCell id="ZEo53E-9DV6HsdwpZdx1-391" value="&lt;font style=&quot;font-size: 90px;&quot;&gt;1&lt;/font&gt;" style="text;html=1;align=center;verticalAlign=middle;resizable=0;points=[];autosize=1;strokeColor=none;fillColor=none;fontSize=54;fontFamily=Helvetica;fontColor=default;" parent="1" vertex="1">
          <mxGeometry x="6770" y="2720" width="70" height="120" as="geometry" />
        </mxCell>
        <mxCell id="ZEo53E-9DV6HsdwpZdx1-393" value="&lt;font style=&quot;font-size: 90px;&quot;&gt;1&lt;/font&gt;" style="text;html=1;align=center;verticalAlign=middle;resizable=0;points=[];autosize=1;strokeColor=none;fillColor=none;fontSize=54;fontFamily=Helvetica;fontColor=default;" parent="1" vertex="1">
          <mxGeometry x="8820" y="2630" width="70" height="120" as="geometry" />
        </mxCell>
        <mxCell id="ZEo53E-9DV6HsdwpZdx1-394" value="&lt;font style=&quot;font-size: 90px;&quot;&gt;1&lt;/font&gt;" style="text;html=1;align=center;verticalAlign=middle;resizable=0;points=[];autosize=1;strokeColor=none;fillColor=none;fontSize=54;fontFamily=Helvetica;fontColor=default;" parent="1" vertex="1">
          <mxGeometry x="6070" y="5430" width="70" height="120" as="geometry" />
        </mxCell>
        <mxCell id="ZEo53E-9DV6HsdwpZdx1-395" value="&lt;font style=&quot;font-size: 90px;&quot;&gt;N&lt;/font&gt;" style="text;html=1;align=center;verticalAlign=middle;resizable=0;points=[];autosize=1;strokeColor=none;fillColor=none;fontSize=54;fontFamily=Helvetica;fontColor=default;" parent="1" vertex="1">
          <mxGeometry x="8310" y="5435" width="90" height="120" as="geometry" />
        </mxCell>
        <mxCell id="ZEo53E-9DV6HsdwpZdx1-396" value="&lt;font style=&quot;font-size: 90px;&quot;&gt;1&lt;/font&gt;" style="text;html=1;align=center;verticalAlign=middle;resizable=0;points=[];autosize=1;strokeColor=none;fillColor=none;fontSize=54;fontFamily=Helvetica;fontColor=default;" parent="1" vertex="1">
          <mxGeometry x="5394" y="3915" width="70" height="120" as="geometry" />
        </mxCell>
        <mxCell id="ZEo53E-9DV6HsdwpZdx1-397" value="&lt;font style=&quot;font-size: 90px;&quot;&gt;1&lt;/font&gt;" style="text;html=1;align=center;verticalAlign=middle;resizable=0;points=[];autosize=1;strokeColor=none;fillColor=none;fontSize=54;fontFamily=Helvetica;fontColor=default;" parent="1" vertex="1">
          <mxGeometry x="6863" y="4512" width="70" height="120" as="geometry" />
        </mxCell>
        <mxCell id="ZEo53E-9DV6HsdwpZdx1-398" value="&lt;font style=&quot;font-size: 90px;&quot;&gt;1&lt;/font&gt;" style="text;html=1;align=center;verticalAlign=middle;resizable=0;points=[];autosize=1;strokeColor=none;fillColor=none;fontSize=54;fontFamily=Helvetica;fontColor=default;" parent="1" vertex="1">
          <mxGeometry x="7465" y="4535" width="70" height="120" as="geometry" />
        </mxCell>
        <mxCell id="ZEo53E-9DV6HsdwpZdx1-399" value="&lt;font style=&quot;font-size: 90px;&quot;&gt;1&lt;/font&gt;" style="text;html=1;align=center;verticalAlign=middle;resizable=0;points=[];autosize=1;strokeColor=none;fillColor=none;fontSize=54;fontFamily=Helvetica;fontColor=default;" parent="1" vertex="1">
          <mxGeometry x="9200" y="2832" width="70" height="120" as="geometry" />
        </mxCell>
        <mxCell id="ZEo53E-9DV6HsdwpZdx1-400" value="&lt;font style=&quot;font-size: 90px;&quot;&gt;N&lt;/font&gt;" style="text;html=1;align=center;verticalAlign=middle;resizable=0;points=[];autosize=1;strokeColor=none;fillColor=none;fontSize=54;fontFamily=Helvetica;fontColor=default;" parent="1" vertex="1">
          <mxGeometry x="9210" y="3535" width="90" height="120" as="geometry" />
        </mxCell>
        <mxCell id="ZEo53E-9DV6HsdwpZdx1-402" value="NIC" style="ellipse;align=center;fontSize=54;strokeWidth=4;fontStyle=1;labelBorderColor=none;" parent="1" vertex="1">
          <mxGeometry x="7540" y="2980" width="330" height="180" as="geometry" />
        </mxCell>
        <mxCell id="ZEo53E-9DV6HsdwpZdx1-403" value="" style="endArrow=none;rounded=0;fontSize=54;fontStyle=1;exitX=1;exitY=1;exitDx=0;exitDy=0;labelBorderColor=none;strokeWidth=4;entryX=0;entryY=0;entryDx=0;entryDy=0;" parent="1" source="ZEo53E-9DV6HsdwpZdx1-291" target="ZEo53E-9DV6HsdwpZdx1-402" edge="1">
          <mxGeometry width="50" height="50" relative="1" as="geometry">
            <mxPoint x="8070" y="3240" as="sourcePoint" />
            <mxPoint x="7774" y="3316" as="targetPoint" />
          </mxGeometry>
        </mxCell>
        <mxCell id="ZEo53E-9DV6HsdwpZdx1-404" value="&lt;font style=&quot;font-size: 90px;&quot;&gt;1&lt;/font&gt;" style="text;html=1;align=center;verticalAlign=middle;resizable=0;points=[];autosize=1;strokeColor=none;fillColor=none;fontSize=54;fontFamily=Helvetica;fontColor=default;" parent="1" vertex="1">
          <mxGeometry x="9016" y="3924" width="70" height="120" as="geometry" />
        </mxCell>
        <mxCell id="ZEo53E-9DV6HsdwpZdx1-405" value="Start_date" style="ellipse;align=center;fontSize=54;fontStyle=1;labelBorderColor=none;strokeWidth=4;" parent="1" vertex="1">
          <mxGeometry x="5850" y="3370" width="440" height="180" as="geometry" />
        </mxCell>
        <mxCell id="ZEo53E-9DV6HsdwpZdx1-406" value="End_date" style="ellipse;align=center;fontSize=54;fontStyle=1;labelBorderColor=none;strokeWidth=4;" parent="1" vertex="1">
          <mxGeometry x="6365" y="3355" width="440" height="180" as="geometry" />
        </mxCell>
        <mxCell id="ZEo53E-9DV6HsdwpZdx1-407" value="" style="endArrow=none;rounded=0;exitX=0.5;exitY=0;exitDx=0;exitDy=0;entryX=1;entryY=1;entryDx=0;entryDy=0;fontSize=54;fontStyle=1;labelBorderColor=none;strokeWidth=4;" parent="1" source="ZEo53E-9DV6HsdwpZdx1-305" target="ZEo53E-9DV6HsdwpZdx1-405" edge="1">
          <mxGeometry width="50" height="50" relative="1" as="geometry">
            <mxPoint x="6110" y="3910" as="sourcePoint" />
            <mxPoint x="5780" y="3750" as="targetPoint" />
          </mxGeometry>
        </mxCell>
        <mxCell id="ZEo53E-9DV6HsdwpZdx1-408" value="" style="endArrow=none;rounded=0;fontSize=54;fontStyle=1;labelBorderColor=none;strokeWidth=4;exitX=0.5;exitY=0;exitDx=0;exitDy=0;" parent="1" source="ZEo53E-9DV6HsdwpZdx1-305" target="ZEo53E-9DV6HsdwpZdx1-406" edge="1">
          <mxGeometry width="50" height="50" relative="1" as="geometry">
            <mxPoint x="6430" y="3580" as="sourcePoint" />
            <mxPoint x="6190" y="3340" as="targetPoint" />
          </mxGeometry>
        </mxCell>
        <mxCell id="ZEo53E-9DV6HsdwpZdx1-409" value="&lt;font style=&quot;font-size: 90px;&quot;&gt;1&lt;/font&gt;" style="text;html=1;align=center;verticalAlign=middle;resizable=0;points=[];autosize=1;strokeColor=none;fillColor=none;fontSize=54;fontFamily=Helvetica;fontColor=default;" parent="1" vertex="1">
          <mxGeometry x="7400" y="2937" width="70" height="120" as="geometry" />
        </mxCell>
        <mxCell id="ZEo53E-9DV6HsdwpZdx1-410" value="&lt;font style=&quot;font-size: 90px;&quot;&gt;N&lt;/font&gt;" style="text;html=1;align=center;verticalAlign=middle;resizable=0;points=[];autosize=1;strokeColor=none;fillColor=none;fontSize=54;fontFamily=Helvetica;fontColor=default;" parent="1" vertex="1">
          <mxGeometry x="6905" y="2930" width="90" height="120" as="geometry" />
        </mxCell>
        <mxCell id="ZEo53E-9DV6HsdwpZdx1-411" value="&lt;font style=&quot;font-size: 90px;&quot;&gt;M&lt;/font&gt;" style="text;html=1;align=center;verticalAlign=middle;resizable=0;points=[];autosize=1;strokeColor=none;fillColor=none;fontSize=54;fontFamily=Helvetica;fontColor=default;" parent="1" vertex="1">
          <mxGeometry x="5635" y="3590" width="100" height="120" as="geometry" />
        </mxCell>
        <mxCell id="ZEo53E-9DV6HsdwpZdx1-412" value="&lt;font style=&quot;font-size: 90px;&quot;&gt;N&lt;/font&gt;" style="text;html=1;align=center;verticalAlign=middle;resizable=0;points=[];autosize=1;strokeColor=none;fillColor=none;fontSize=54;fontFamily=Helvetica;fontColor=default;" parent="1" vertex="1">
          <mxGeometry x="8760" y="3620" width="90" height="120" as="geometry" />
        </mxCell>
        <mxCell id="ZEo53E-9DV6HsdwpZdx1-413" value="Plan_name" style="ellipse;align=center;fontSize=54;fontStyle=1;labelBorderColor=none;strokeWidth=4;" parent="1" vertex="1">
          <mxGeometry x="4595" y="4092" width="440" height="180" as="geometry" />
        </mxCell>
        <mxCell id="ZEo53E-9DV6HsdwpZdx1-414" value="" style="endArrow=none;rounded=0;entryX=0.5;entryY=0;entryDx=0;entryDy=0;fontSize=54;fontStyle=1;labelBorderColor=none;strokeWidth=4;exitX=0;exitY=1;exitDx=0;exitDy=0;" parent="1" source="ZEo53E-9DV6HsdwpZdx1-357" target="ZEo53E-9DV6HsdwpZdx1-413" edge="1">
          <mxGeometry width="50" height="50" relative="1" as="geometry">
            <mxPoint x="4395" y="4370" as="sourcePoint" />
            <mxPoint x="4155" y="4481" as="targetPoint" />
          </mxGeometry>
        </mxCell>
        <mxCell id="ZEo53E-9DV6HsdwpZdx1-415" value="" style="endArrow=none;rounded=0;fontSize=54;fontStyle=1;exitX=0.5;exitY=0;exitDx=0;exitDy=0;labelBorderColor=none;strokeWidth=5;entryX=0.5;entryY=1;entryDx=0;entryDy=0;" parent="1" source="ZEo53E-9DV6HsdwpZdx1-317" target="ZEo53E-9DV6HsdwpZdx1-294" edge="1">
          <mxGeometry width="50" height="50" relative="1" as="geometry">
            <mxPoint x="5850" y="4840" as="sourcePoint" />
            <mxPoint x="6036" y="4625" as="targetPoint" />
          </mxGeometry>
        </mxCell>
        <mxCell id="ZEo53E-9DV6HsdwpZdx1-416" value="Calorie_unit" style="ellipse;align=center;fontSize=54;fontStyle=1;labelBorderColor=none;strokeWidth=4;" parent="1" vertex="1">
          <mxGeometry x="9250" y="5455" width="450" height="220" as="geometry" />
        </mxCell>
        <mxCell id="ZEo53E-9DV6HsdwpZdx1-417" value="" style="endArrow=none;rounded=0;exitX=0;exitY=0.5;exitDx=0;exitDy=0;entryX=1;entryY=0.5;entryDx=0;entryDy=0;fontSize=54;fontStyle=1;labelBorderColor=none;strokeWidth=4;" parent="1" source="ZEo53E-9DV6HsdwpZdx1-416" target="ZEo53E-9DV6HsdwpZdx1-296" edge="1">
          <mxGeometry width="50" height="50" relative="1" as="geometry">
            <mxPoint x="9490" y="5000" as="sourcePoint" />
            <mxPoint x="9285" y="5235" as="targetPoint" />
          </mxGeometry>
        </mxCell>
        <mxCell id="ZEo53E-9DV6HsdwpZdx1-418" value="Food_name" style="ellipse;align=center;fontSize=54;fontStyle=1;labelBorderColor=none;strokeWidth=4;" parent="1" vertex="1">
          <mxGeometry x="8660" y="5815" width="450" height="220" as="geometry" />
        </mxCell>
        <mxCell id="ZEo53E-9DV6HsdwpZdx1-419" value="" style="endArrow=none;rounded=0;exitX=0.5;exitY=0;exitDx=0;exitDy=0;entryX=0.5;entryY=1;entryDx=0;entryDy=0;fontSize=54;fontStyle=1;labelBorderColor=none;strokeWidth=4;" parent="1" source="ZEo53E-9DV6HsdwpZdx1-418" target="ZEo53E-9DV6HsdwpZdx1-296" edge="1">
          <mxGeometry width="50" height="50" relative="1" as="geometry">
            <mxPoint x="8605" y="6110" as="sourcePoint" />
            <mxPoint x="8375" y="6045" as="targetPoint" />
          </mxGeometry>
        </mxCell>
        <mxCell id="ZEo53E-9DV6HsdwpZdx1-420" value="" style="endArrow=none;rounded=0;fontSize=54;fontStyle=1;exitX=0;exitY=0;exitDx=0;exitDy=0;labelBorderColor=none;strokeWidth=4;entryX=1;entryY=0.5;entryDx=0;entryDy=0;" parent="1" source="ZEo53E-9DV6HsdwpZdx1-421" target="ZEo53E-9DV6HsdwpZdx1-293" edge="1">
          <mxGeometry width="50" height="50" relative="1" as="geometry">
            <mxPoint x="9580" y="2804" as="sourcePoint" />
            <mxPoint x="9290" y="2915" as="targetPoint" />
          </mxGeometry>
        </mxCell>
        <mxCell id="ZEo53E-9DV6HsdwpZdx1-421" value="Phone_no" style="ellipse;align=center;fontSize=54;fontStyle=1;labelBorderColor=none;strokeWidth=4;" parent="1" vertex="1">
          <mxGeometry x="9545" y="2765" width="390" height="190" as="geometry" />
        </mxCell>
        <mxCell id="ZEo53E-9DV6HsdwpZdx1-422" value="" style="endArrow=none;rounded=0;strokeWidth=4;fontSize=54;fontStyle=1;exitX=1;exitY=0.5;exitDx=0;exitDy=0;entryX=0;entryY=0.5;entryDx=0;entryDy=0;labelBorderColor=none;shape=link;width=15;" parent="1" source="ZEo53E-9DV6HsdwpZdx1-386" target="ZEo53E-9DV6HsdwpZdx1-303" edge="1">
          <mxGeometry width="50" height="50" relative="1" as="geometry">
            <mxPoint x="5575" y="2530" as="sourcePoint" />
            <mxPoint x="6120" y="2534" as="targetPoint" />
            <Array as="points" />
          </mxGeometry>
        </mxCell>
        <mxCell id="ZEo53E-9DV6HsdwpZdx1-423" value="" style="endArrow=none;rounded=0;strokeWidth=4;fontSize=54;fontStyle=1;entryX=0;entryY=0.5;entryDx=0;entryDy=0;labelBorderColor=none;shape=link;width=15;exitX=1;exitY=0.5;exitDx=0;exitDy=0;" parent="1" source="ZEo53E-9DV6HsdwpZdx1-357" target="ZEo53E-9DV6HsdwpZdx1-305" edge="1">
          <mxGeometry width="50" height="50" relative="1" as="geometry">
            <mxPoint x="5570" y="3754" as="sourcePoint" />
            <mxPoint x="6315" y="3834" as="targetPoint" />
            <Array as="points" />
          </mxGeometry>
        </mxCell>
        <mxCell id="ZEo53E-9DV6HsdwpZdx1-424" value="" style="endArrow=none;rounded=0;strokeWidth=4;fontSize=54;fontStyle=1;exitX=0.5;exitY=1;exitDx=0;exitDy=0;entryX=0.5;entryY=0;entryDx=0;entryDy=0;labelBorderColor=none;shape=link;width=15;" parent="1" source="ZEo53E-9DV6HsdwpZdx1-359" target="ZEo53E-9DV6HsdwpZdx1-294" edge="1">
          <mxGeometry width="50" height="50" relative="1" as="geometry">
            <mxPoint x="7650" y="4080" as="sourcePoint" />
            <mxPoint x="8195" y="4084" as="targetPoint" />
            <Array as="points" />
          </mxGeometry>
        </mxCell>
        <mxCell id="ZEo53E-9DV6HsdwpZdx1-425" value="Email" style="ellipse;align=center;fontSize=54;strokeWidth=4;fontStyle=1;labelBorderColor=none;" parent="1" vertex="1">
          <mxGeometry x="7645" y="2595" width="382.5" height="180" as="geometry" />
        </mxCell>
        <mxCell id="ZEo53E-9DV6HsdwpZdx1-426" value="" style="endArrow=none;rounded=0;fontSize=54;fontStyle=1;exitX=0;exitY=0.5;exitDx=0;exitDy=0;labelBorderColor=none;strokeWidth=4;entryX=1;entryY=0.25;entryDx=0;entryDy=0;" parent="1" source="ZEo53E-9DV6HsdwpZdx1-425" target="ZEo53E-9DV6HsdwpZdx1-291" edge="1">
          <mxGeometry width="50" height="50" relative="1" as="geometry">
            <mxPoint x="8200" y="2330" as="sourcePoint" />
            <mxPoint x="8323" y="2419" as="targetPoint" />
          </mxGeometry>
        </mxCell>
        <mxCell id="ZEo53E-9DV6HsdwpZdx1-427" value="Phone_no" style="ellipse;align=center;fontSize=54;fontStyle=1;labelBorderColor=none;strokeWidth=4;" parent="1" vertex="1">
          <mxGeometry x="5740" y="5790" width="390" height="190" as="geometry" />
        </mxCell>
        <mxCell id="ZEo53E-9DV6HsdwpZdx1-428" value="" style="endArrow=none;rounded=0;fontSize=54;fontStyle=1;labelBorderColor=none;strokeWidth=4;" parent="1" source="ZEo53E-9DV6HsdwpZdx1-295" target="ZEo53E-9DV6HsdwpZdx1-427" edge="1">
          <mxGeometry width="50" height="50" relative="1" as="geometry">
            <mxPoint x="5505" y="5925" as="sourcePoint" />
            <mxPoint x="5645" y="6005" as="targetPoint" />
          </mxGeometry>
        </mxCell>
        <mxCell id="ZEo53E-9DV6HsdwpZdx1-429" value="&lt;font style=&quot;font-size: 90px;&quot;&gt;N&lt;/font&gt;" style="text;html=1;align=center;verticalAlign=middle;resizable=0;points=[];autosize=1;strokeColor=none;fillColor=none;fontSize=54;fontFamily=Helvetica;fontColor=default;" parent="1" vertex="1">
          <mxGeometry x="7615" y="2745" width="90" height="120" as="geometry" />
        </mxCell>
        <mxCell id="ZEo53E-9DV6HsdwpZdx1-430" value="&lt;font style=&quot;font-size: 90px;&quot;&gt;1&lt;/font&gt;" style="text;html=1;align=center;verticalAlign=middle;resizable=0;points=[];autosize=1;strokeColor=none;fillColor=none;fontSize=54;fontFamily=Helvetica;fontColor=default;" parent="1" vertex="1">
          <mxGeometry x="7135" y="3150" width="70" height="120" as="geometry" />
        </mxCell>
        <mxCell id="ZEo53E-9DV6HsdwpZdx1-432" value="Has" style="shape=rhombus;perimeter=rhombusPerimeter;align=center;fontSize=54;fontStyle=1;labelBorderColor=none;strokeWidth=5;" parent="1" vertex="1">
          <mxGeometry x="4595" y="4733" width="640" height="270" as="geometry" />
        </mxCell>
        <mxCell id="ZEo53E-9DV6HsdwpZdx1-433" value="" style="endArrow=none;rounded=0;strokeWidth=5;fontSize=54;fontStyle=1;entryX=0.5;entryY=1;entryDx=0;entryDy=0;labelBorderColor=none;exitX=0.5;exitY=0;exitDx=0;exitDy=0;" parent="1" source="ZEo53E-9DV6HsdwpZdx1-295" target="ZEo53E-9DV6HsdwpZdx1-432" edge="1">
          <mxGeometry width="50" height="50" relative="1" as="geometry">
            <mxPoint x="4605" y="4910" as="sourcePoint" />
            <mxPoint x="4105" y="4249" as="targetPoint" />
            <Array as="points" />
          </mxGeometry>
        </mxCell>
        <mxCell id="ZEo53E-9DV6HsdwpZdx1-437" value="&lt;font style=&quot;font-size: 90px;&quot;&gt;1&lt;/font&gt;" style="text;html=1;align=center;verticalAlign=middle;resizable=0;points=[];autosize=1;strokeColor=none;fillColor=none;fontSize=54;fontFamily=Helvetica;fontColor=default;" parent="1" vertex="1">
          <mxGeometry x="5487" y="5346" width="70" height="120" as="geometry" />
        </mxCell>
        <mxCell id="ZEo53E-9DV6HsdwpZdx1-440" value="&lt;font style=&quot;font-size: 90px;&quot;&gt;N&lt;/font&gt;" style="text;html=1;align=center;verticalAlign=middle;resizable=0;points=[];autosize=1;strokeColor=none;fillColor=none;fontSize=54;fontFamily=Helvetica;fontColor=default;" parent="1" vertex="1">
          <mxGeometry x="5050" y="3915" width="90" height="120" as="geometry" />
        </mxCell>
        <mxCell id="ZEo53E-9DV6HsdwpZdx1-441" value="" style="endArrow=none;rounded=0;strokeWidth=5;fontSize=54;fontStyle=1;labelBorderColor=none;exitX=0.5;exitY=1;exitDx=0;exitDy=0;" parent="1" source="ZEo53E-9DV6HsdwpZdx1-388" target="ZEo53E-9DV6HsdwpZdx1-295" edge="1">
          <mxGeometry width="50" height="50" relative="1" as="geometry">
            <mxPoint x="5870" y="4840" as="sourcePoint" />
            <mxPoint x="5830" y="5405" as="targetPoint" />
            <Array as="points" />
          </mxGeometry>
        </mxCell>
        <mxCell id="ZEo53E-9DV6HsdwpZdx1-442" value="" style="endArrow=none;rounded=0;strokeWidth=5;fontSize=54;fontStyle=1;labelBorderColor=none;exitX=0.5;exitY=1;exitDx=0;exitDy=0;entryX=0.25;entryY=0;entryDx=0;entryDy=0;" parent="1" source="ZEo53E-9DV6HsdwpZdx1-358" target="ZEo53E-9DV6HsdwpZdx1-296" edge="1">
          <mxGeometry width="50" height="50" relative="1" as="geometry">
            <mxPoint x="7965" y="4985" as="sourcePoint" />
            <mxPoint x="7618" y="5803" as="targetPoint" />
            <Array as="points" />
          </mxGeometry>
        </mxCell>
        <mxCell id="ZEo53E-9DV6HsdwpZdx1-443" value="" style="endArrow=none;rounded=0;strokeWidth=5;fontSize=54;fontStyle=1;labelBorderColor=none;entryX=0.5;entryY=0;entryDx=0;entryDy=0;" parent="1" source="ZEo53E-9DV6HsdwpZdx1-291" target="ZEo53E-9DV6HsdwpZdx1-358" edge="1">
          <mxGeometry width="50" height="50" relative="1" as="geometry">
            <mxPoint x="7740" y="4080" as="sourcePoint" />
            <mxPoint x="8058" y="4820" as="targetPoint" />
            <Array as="points">
              <mxPoint x="7595" y="3830" />
            </Array>
          </mxGeometry>
        </mxCell>
        <mxCell id="ZEo53E-9DV6HsdwpZdx1-444" value="" style="endArrow=none;rounded=0;strokeWidth=5;fontSize=54;fontStyle=1;labelBorderColor=none;entryX=0.5;entryY=0;entryDx=0;entryDy=0;" parent="1" source="ZEo53E-9DV6HsdwpZdx1-291" target="ZEo53E-9DV6HsdwpZdx1-388" edge="1">
          <mxGeometry width="50" height="50" relative="1" as="geometry">
            <mxPoint x="6710" y="3920" as="sourcePoint" />
            <mxPoint x="6363" y="4738" as="targetPoint" />
            <Array as="points">
              <mxPoint x="6845" y="3755" />
            </Array>
          </mxGeometry>
        </mxCell>
        <mxCell id="ZEo53E-9DV6HsdwpZdx1-445" value="" style="endArrow=none;rounded=0;strokeWidth=4;fontSize=54;fontStyle=1;exitX=1;exitY=0.5;exitDx=0;exitDy=0;entryX=0.5;entryY=1;entryDx=0;entryDy=0;labelBorderColor=none;shape=link;width=15;" parent="1" source="yk2BD9m53uzKmdHa4zGL-2" target="ZEo53E-9DV6HsdwpZdx1-292" edge="1">
          <mxGeometry width="50" height="50" relative="1" as="geometry">
            <mxPoint x="8585" y="4270" as="sourcePoint" />
            <mxPoint x="9130" y="4274" as="targetPoint" />
            <Array as="points" />
          </mxGeometry>
        </mxCell>
        <mxCell id="ZEo53E-9DV6HsdwpZdx1-446" value="&lt;font style=&quot;font-size: 90px;&quot;&gt;N&lt;/font&gt;" style="text;html=1;align=center;verticalAlign=middle;resizable=0;points=[];autosize=1;strokeColor=none;fillColor=none;fontSize=54;fontFamily=Helvetica;fontColor=default;" parent="1" vertex="1">
          <mxGeometry x="6990" y="3060" width="90" height="120" as="geometry" />
        </mxCell>
        <mxCell id="ZEo53E-9DV6HsdwpZdx1-447" value="&lt;font style=&quot;font-size: 90px;&quot;&gt;1&lt;/font&gt;" style="text;html=1;align=center;verticalAlign=middle;resizable=0;points=[];autosize=1;strokeColor=none;fillColor=none;fontSize=54;fontFamily=Helvetica;fontColor=default;" parent="1" vertex="1">
          <mxGeometry x="5777" y="5248" width="70" height="120" as="geometry" />
        </mxCell>
        <mxCell id="ZEo53E-9DV6HsdwpZdx1-448" value="&lt;font style=&quot;font-size: 90px;&quot;&gt;1&lt;/font&gt;" style="text;html=1;align=center;verticalAlign=middle;resizable=0;points=[];autosize=1;strokeColor=none;fillColor=none;fontSize=54;fontFamily=Helvetica;fontColor=default;" parent="1" vertex="1">
          <mxGeometry x="7320" y="3034" width="70" height="120" as="geometry" />
        </mxCell>
        <mxCell id="ZEo53E-9DV6HsdwpZdx1-451" value="" style="endArrow=none;rounded=0;strokeWidth=4;fontSize=54;fontStyle=1;entryX=0.5;entryY=1;entryDx=0;entryDy=0;labelBorderColor=none;shape=link;width=15;exitX=0;exitY=0.5;exitDx=0;exitDy=0;" parent="1" source="yk2BD9m53uzKmdHa4zGL-1" target="ZEo53E-9DV6HsdwpZdx1-357" edge="1">
          <mxGeometry width="50" height="50" relative="1" as="geometry">
            <mxPoint x="5944" y="4198" as="sourcePoint" />
            <mxPoint x="5840" y="3400" as="targetPoint" />
          </mxGeometry>
        </mxCell>
        <mxCell id="ZEo53E-9DV6HsdwpZdx1-453" value="&lt;font style=&quot;font-size: 90px;&quot;&gt;N&lt;/font&gt;" style="text;html=1;align=center;verticalAlign=middle;resizable=0;points=[];autosize=1;strokeColor=none;fillColor=none;fontSize=54;fontFamily=Helvetica;fontColor=default;" parent="1" vertex="1">
          <mxGeometry x="7100" y="4420" width="90" height="120" as="geometry" />
        </mxCell>
        <mxCell id="ZEo53E-9DV6HsdwpZdx1-454" value="" style="endArrow=none;rounded=0;strokeWidth=5;fontSize=54;fontStyle=1;entryX=0.25;entryY=1;entryDx=0;entryDy=0;labelBorderColor=none;exitX=0.5;exitY=0;exitDx=0;exitDy=0;" parent="1" source="ZEo53E-9DV6HsdwpZdx1-432" target="ZEo53E-9DV6HsdwpZdx1-357" edge="1">
          <mxGeometry width="50" height="50" relative="1" as="geometry">
            <mxPoint x="4635" y="4505" as="sourcePoint" />
            <mxPoint x="3925" y="3877" as="targetPoint" />
            <Array as="points" />
          </mxGeometry>
        </mxCell>
        <mxCell id="ZEo53E-9DV6HsdwpZdx1-457" value="&lt;font style=&quot;font-size: 90px;&quot;&gt;N&lt;/font&gt;" style="text;html=1;align=center;verticalAlign=middle;resizable=0;points=[];autosize=1;strokeColor=none;fillColor=none;fontSize=54;fontFamily=Helvetica;fontColor=default;" parent="1" vertex="1">
          <mxGeometry x="5260" y="2665" width="90" height="120" as="geometry" />
        </mxCell>
        <mxCell id="ZEo53E-9DV6HsdwpZdx1-458" value="&lt;font style=&quot;font-size: 90px;&quot;&gt;N&lt;/font&gt;" style="text;html=1;align=center;verticalAlign=middle;resizable=0;points=[];autosize=1;strokeColor=none;fillColor=none;fontSize=54;fontFamily=Helvetica;fontColor=default;" parent="1" vertex="1">
          <mxGeometry x="8605" y="5285" width="90" height="120" as="geometry" />
        </mxCell>
        <mxCell id="yk2BD9m53uzKmdHa4zGL-1" value="Has" style="shape=rhombus;perimeter=rhombusPerimeter;align=center;fontSize=54;fontStyle=1;labelBorderColor=none;strokeWidth=5;" parent="1" vertex="1">
          <mxGeometry x="5390" y="4452" width="640" height="270" as="geometry" />
        </mxCell>
        <mxCell id="yk2BD9m53uzKmdHa4zGL-2" value="Has" style="shape=rhombus;perimeter=rhombusPerimeter;align=center;fontSize=54;fontStyle=1;labelBorderColor=none;strokeWidth=5;" parent="1" vertex="1">
          <mxGeometry x="8425" y="4445" width="640" height="270" as="geometry" />
        </mxCell>
      </root>
    </mxGraphModel>
  </diagram>
</mxfile>
